<mxfile host="app.diagrams.net" modified="2021-11-03T20:43:54.865Z" agent="5.0 (Macintosh; Intel Mac OS X 10_15_7) AppleWebKit/537.36 (KHTML, like Gecko) Chrome/95.0.4638.69 Safari/537.36" etag="cBWG_m2kTwrWOkZ3NC5S" version="15.6.8" type="github">
  <diagram id="JInU23m93yLGHJetOAlo" name="Simple Rails App ">
    <mxGraphModel dx="4798" dy="2689" grid="1" gridSize="10" guides="1" tooltips="1" connect="1" arrows="1" fold="1" page="1" pageScale="1" pageWidth="850" pageHeight="1100" math="0" shadow="1">
      <root>
        <mxCell id="0" />
        <mxCell id="1" parent="0" />
        <mxCell id="44BDwmXZHBo2efQboQns-4" value="" style="group" vertex="1" connectable="0" parent="1">
          <mxGeometry x="359.9961538461538" y="20" width="240.0038461538462" height="180" as="geometry" />
        </mxCell>
        <mxCell id="VXrbcK9fwIAbOTuLjDqE-16" value="&lt;ul style=&quot;font-size: 9px&quot;&gt;&lt;li&gt;name.s&lt;/li&gt;&lt;li&gt;desc.s&lt;/li&gt;&lt;li&gt;price.f&lt;/li&gt;&lt;li&gt;rating.f&lt;/li&gt;&lt;li&gt;brand.s&lt;/li&gt;&lt;li&gt;wight.s&lt;/li&gt;&lt;li&gt;dim.s&lt;/li&gt;&lt;li&gt;model.s&lt;/li&gt;&lt;li&gt;manuf.s&lt;/li&gt;&lt;li&gt;countryoo.s&lt;/li&gt;&lt;li&gt;discon. b&lt;/li&gt;&lt;li&gt;color. s&lt;/li&gt;&lt;li&gt;material. s&lt;/li&gt;&lt;li&gt;quantity.i&lt;/li&gt;&lt;/ul&gt;" style="rounded=0;whiteSpace=wrap;html=1;fontSize=26;align=left;spacingLeft=-27;spacingTop=-6;" parent="44BDwmXZHBo2efQboQns-4" vertex="1">
          <mxGeometry y="20" width="71.7948717948718" height="160" as="geometry" />
        </mxCell>
        <mxCell id="VXrbcK9fwIAbOTuLjDqE-17" value="&lt;div&gt;&lt;br&gt;&lt;/div&gt;&lt;ul&gt;&lt;li&gt;&lt;b&gt;&lt;i&gt;B2&lt;/i&gt;&lt;/b&gt;: inventory, order(op), category, shopping_cart(op)&lt;/li&gt;&lt;li&gt;&lt;b&gt;&lt;i&gt;HABM&lt;/i&gt;&lt;/b&gt;: searches, lists&lt;/li&gt;&lt;li&gt;&lt;i style=&quot;font-weight: bold&quot;&gt;HM: &lt;/i&gt;reviews, styles&lt;/li&gt;&lt;/ul&gt;" style="rounded=0;whiteSpace=wrap;html=1;fontSize=9;align=left;verticalAlign=middle;labelPosition=center;verticalLabelPosition=middle;textDirection=ltr;horizontal=1;spacingLeft=-27;spacingRight=0;spacing=0;spacingTop=-2;" parent="44BDwmXZHBo2efQboQns-4" vertex="1">
          <mxGeometry x="71.79384615384623" y="20" width="168.21" height="160" as="geometry" />
        </mxCell>
        <mxCell id="44BDwmXZHBo2efQboQns-3" value="&lt;b&gt;ITEM&lt;/b&gt;" style="rounded=0;whiteSpace=wrap;html=1;" vertex="1" parent="44BDwmXZHBo2efQboQns-4">
          <mxGeometry x="0.003846153846211564" width="240" height="20" as="geometry" />
        </mxCell>
        <mxCell id="44BDwmXZHBo2efQboQns-5" value="" style="group" vertex="1" connectable="0" parent="1">
          <mxGeometry x="79.99615384615379" y="-260" width="240.0038461538462" height="180" as="geometry" />
        </mxCell>
        <mxCell id="44BDwmXZHBo2efQboQns-6" value="&lt;ul style=&quot;font-size: 9px&quot;&gt;&lt;li&gt;query.s&lt;/li&gt;&lt;/ul&gt;" style="rounded=0;whiteSpace=wrap;html=1;fontSize=26;align=left;spacingLeft=-27;spacingTop=-6;" vertex="1" parent="44BDwmXZHBo2efQboQns-5">
          <mxGeometry y="20" width="71.7948717948718" height="160" as="geometry" />
        </mxCell>
        <mxCell id="44BDwmXZHBo2efQboQns-7" value="&lt;div&gt;&lt;br&gt;&lt;/div&gt;&lt;ul&gt;&lt;li&gt;&lt;b&gt;&lt;i&gt;B2&lt;/i&gt;&lt;/b&gt;: user(op)&lt;/li&gt;&lt;li&gt;&lt;i style=&quot;font-weight: bold&quot;&gt;H1: &lt;/i&gt;category (incl. &#39;all&#39;)&lt;/li&gt;&lt;li&gt;&lt;i style=&quot;font-weight: bold&quot;&gt;HABM: &lt;/i&gt;items&lt;/li&gt;&lt;/ul&gt;" style="rounded=0;whiteSpace=wrap;html=1;fontSize=9;align=left;verticalAlign=middle;labelPosition=center;verticalLabelPosition=middle;textDirection=ltr;horizontal=1;spacingLeft=-27;spacingRight=0;spacing=0;spacingTop=-2;" vertex="1" parent="44BDwmXZHBo2efQboQns-5">
          <mxGeometry x="71.79384615384623" y="20" width="168.21" height="160" as="geometry" />
        </mxCell>
        <mxCell id="44BDwmXZHBo2efQboQns-8" value="&lt;b&gt;SEARCH&lt;/b&gt;" style="rounded=0;whiteSpace=wrap;html=1;" vertex="1" parent="44BDwmXZHBo2efQboQns-5">
          <mxGeometry x="0.003846153846211564" width="240" height="20" as="geometry" />
        </mxCell>
        <mxCell id="44BDwmXZHBo2efQboQns-12" value="" style="endArrow=classic;startArrow=classic;html=1;rounded=0;entryX=0;entryY=0.5;entryDx=0;entryDy=0;exitX=0.29;exitY=1.007;exitDx=0;exitDy=0;exitPerimeter=0;" edge="1" parent="1" source="44BDwmXZHBo2efQboQns-7" target="VXrbcK9fwIAbOTuLjDqE-16">
          <mxGeometry width="50" height="50" relative="1" as="geometry">
            <mxPoint x="280" y="120" as="sourcePoint" />
            <mxPoint x="480" y="200" as="targetPoint" />
            <Array as="points">
              <mxPoint x="240" y="80" />
            </Array>
          </mxGeometry>
        </mxCell>
        <mxCell id="44BDwmXZHBo2efQboQns-13" value="" style="group" vertex="1" connectable="0" parent="1">
          <mxGeometry x="-200.0038461538462" y="-260" width="240.0038461538462" height="180" as="geometry" />
        </mxCell>
        <mxCell id="44BDwmXZHBo2efQboQns-14" value="&lt;ul style=&quot;font-size: 9px&quot;&gt;&lt;li&gt;name.s&lt;/li&gt;&lt;li&gt;desc.s&lt;/li&gt;&lt;li&gt;private.b&lt;/li&gt;&lt;/ul&gt;" style="rounded=0;whiteSpace=wrap;html=1;fontSize=26;align=left;spacingLeft=-27;spacingTop=-6;" vertex="1" parent="44BDwmXZHBo2efQboQns-13">
          <mxGeometry y="20" width="71.7948717948718" height="160" as="geometry" />
        </mxCell>
        <mxCell id="44BDwmXZHBo2efQboQns-15" value="&lt;div&gt;&lt;br&gt;&lt;/div&gt;&lt;ul&gt;&lt;li&gt;&lt;b&gt;&lt;i&gt;B2&lt;/i&gt;&lt;/b&gt;: user&lt;/li&gt;&lt;li&gt;&lt;b&gt;&lt;i&gt;HABM:&lt;/i&gt;&lt;/b&gt;&amp;nbsp; items&lt;/li&gt;&lt;/ul&gt;" style="rounded=0;whiteSpace=wrap;html=1;fontSize=9;align=left;verticalAlign=middle;labelPosition=center;verticalLabelPosition=middle;textDirection=ltr;horizontal=1;spacingLeft=-27;spacingRight=0;spacing=0;spacingTop=-2;" vertex="1" parent="44BDwmXZHBo2efQboQns-13">
          <mxGeometry x="71.79384615384623" y="20" width="168.21" height="160" as="geometry" />
        </mxCell>
        <mxCell id="44BDwmXZHBo2efQboQns-16" value="&lt;b&gt;LIST&lt;/b&gt;" style="rounded=0;whiteSpace=wrap;html=1;" vertex="1" parent="44BDwmXZHBo2efQboQns-13">
          <mxGeometry x="0.003846153846211564" width="240" height="20" as="geometry" />
        </mxCell>
        <mxCell id="44BDwmXZHBo2efQboQns-17" value="" style="endArrow=classic;startArrow=classic;html=1;rounded=0;exitX=0;exitY=0.5;exitDx=0;exitDy=0;entryX=0.284;entryY=1.017;entryDx=0;entryDy=0;entryPerimeter=0;" edge="1" parent="1" source="VXrbcK9fwIAbOTuLjDqE-16" target="44BDwmXZHBo2efQboQns-15">
          <mxGeometry width="50" height="50" relative="1" as="geometry">
            <mxPoint x="479.75" y="20" as="sourcePoint" />
            <mxPoint x="479.75" y="-100" as="targetPoint" />
            <Array as="points">
              <mxPoint x="160" y="80" />
            </Array>
          </mxGeometry>
        </mxCell>
        <mxCell id="44BDwmXZHBo2efQboQns-113" style="edgeStyle=orthogonalEdgeStyle;rounded=0;orthogonalLoop=1;jettySize=auto;html=1;entryX=1;entryY=0.5;entryDx=0;entryDy=0;" edge="1" parent="1" source="44BDwmXZHBo2efQboQns-18" target="44BDwmXZHBo2efQboQns-111">
          <mxGeometry relative="1" as="geometry">
            <mxPoint x="-280" y="-500" as="targetPoint" />
          </mxGeometry>
        </mxCell>
        <mxCell id="44BDwmXZHBo2efQboQns-18" value="&lt;ul style=&quot;font-size: 9px&quot;&gt;&lt;li&gt;name.s&lt;/li&gt;&lt;li&gt;desc.s&lt;/li&gt;&lt;li&gt;private.b&lt;/li&gt;&lt;/ul&gt;" style="rounded=0;whiteSpace=wrap;html=1;fontSize=26;align=left;spacingLeft=-27;spacingTop=-6;" vertex="1" parent="1">
          <mxGeometry x="359.9961538461538" y="-580" width="71.7948717948718" height="160" as="geometry" />
        </mxCell>
        <mxCell id="44BDwmXZHBo2efQboQns-48" style="edgeStyle=orthogonalEdgeStyle;rounded=0;orthogonalLoop=1;jettySize=auto;html=1;exitX=0.349;exitY=1.003;exitDx=0;exitDy=0;exitPerimeter=0;entryX=0.5;entryY=0;entryDx=0;entryDy=0;" edge="1" parent="1" source="44BDwmXZHBo2efQboQns-19" target="44BDwmXZHBo2efQboQns-24">
          <mxGeometry relative="1" as="geometry">
            <mxPoint x="640" y="291.11118861607144" as="targetPoint" />
            <Array as="points">
              <mxPoint x="491" y="-320" />
              <mxPoint x="640" y="-320" />
            </Array>
          </mxGeometry>
        </mxCell>
        <mxCell id="44BDwmXZHBo2efQboQns-54" style="edgeStyle=orthogonalEdgeStyle;rounded=0;orthogonalLoop=1;jettySize=auto;html=1;exitX=0.25;exitY=1;exitDx=0;exitDy=0;entryX=0.5;entryY=0;entryDx=0;entryDy=0;" edge="1" parent="1" source="44BDwmXZHBo2efQboQns-19" target="44BDwmXZHBo2efQboQns-8">
          <mxGeometry relative="1" as="geometry">
            <Array as="points">
              <mxPoint x="470" y="-420" />
              <mxPoint x="470" y="-320" />
              <mxPoint x="200" y="-320" />
            </Array>
          </mxGeometry>
        </mxCell>
        <mxCell id="44BDwmXZHBo2efQboQns-90" style="edgeStyle=orthogonalEdgeStyle;rounded=0;orthogonalLoop=1;jettySize=auto;html=1;exitX=0.28;exitY=1;exitDx=0;exitDy=0;exitPerimeter=0;" edge="1" parent="1" source="44BDwmXZHBo2efQboQns-19">
          <mxGeometry relative="1" as="geometry">
            <mxPoint x="480" y="-260.0000000000002" as="targetPoint" />
            <Array as="points">
              <mxPoint x="480" y="-420" />
            </Array>
          </mxGeometry>
        </mxCell>
        <mxCell id="44BDwmXZHBo2efQboQns-93" style="edgeStyle=orthogonalEdgeStyle;rounded=0;orthogonalLoop=1;jettySize=auto;html=1;exitX=0.397;exitY=1.001;exitDx=0;exitDy=0;entryX=0.5;entryY=0;entryDx=0;entryDy=0;exitPerimeter=0;" edge="1" parent="1" source="44BDwmXZHBo2efQboQns-19" target="44BDwmXZHBo2efQboQns-42">
          <mxGeometry relative="1" as="geometry">
            <Array as="points">
              <mxPoint x="500" y="-420" />
              <mxPoint x="500" y="-330" />
              <mxPoint x="800" y="-330" />
            </Array>
          </mxGeometry>
        </mxCell>
        <mxCell id="44BDwmXZHBo2efQboQns-94" style="edgeStyle=orthogonalEdgeStyle;rounded=0;orthogonalLoop=1;jettySize=auto;html=1;exitX=0.464;exitY=1.017;exitDx=0;exitDy=0;entryX=0.5;entryY=0;entryDx=0;entryDy=0;exitPerimeter=0;" edge="1" parent="1" source="44BDwmXZHBo2efQboQns-19" target="44BDwmXZHBo2efQboQns-52">
          <mxGeometry relative="1" as="geometry">
            <Array as="points">
              <mxPoint x="510" y="-340" />
              <mxPoint x="1360" y="-340" />
            </Array>
          </mxGeometry>
        </mxCell>
        <mxCell id="44BDwmXZHBo2efQboQns-105" style="edgeStyle=orthogonalEdgeStyle;rounded=0;orthogonalLoop=1;jettySize=auto;html=1;exitX=0.75;exitY=1;exitDx=0;exitDy=0;entryX=0.5;entryY=0;entryDx=0;entryDy=0;" edge="1" parent="1" source="44BDwmXZHBo2efQboQns-19" target="44BDwmXZHBo2efQboQns-100">
          <mxGeometry relative="1" as="geometry">
            <Array as="points">
              <mxPoint x="520" y="-420" />
              <mxPoint x="520" y="-310" />
              <mxPoint x="650" y="-310" />
              <mxPoint x="650" y="240" />
              <mxPoint x="920" y="240" />
            </Array>
          </mxGeometry>
        </mxCell>
        <mxCell id="44BDwmXZHBo2efQboQns-107" style="edgeStyle=orthogonalEdgeStyle;rounded=0;orthogonalLoop=1;jettySize=auto;html=1;exitX=0.75;exitY=1;exitDx=0;exitDy=0;entryX=0.5;entryY=0;entryDx=0;entryDy=0;" edge="1" parent="1" source="44BDwmXZHBo2efQboQns-19" target="44BDwmXZHBo2efQboQns-104">
          <mxGeometry relative="1" as="geometry">
            <Array as="points">
              <mxPoint x="530" y="-420" />
              <mxPoint x="530" y="-300" />
              <mxPoint x="630" y="-300" />
              <mxPoint x="630" y="230" />
              <mxPoint x="1200" y="230" />
            </Array>
          </mxGeometry>
        </mxCell>
        <mxCell id="44BDwmXZHBo2efQboQns-19" value="&lt;div&gt;&lt;br&gt;&lt;/div&gt;&lt;ul&gt;&lt;li&gt;&lt;i style=&quot;font-weight: bold&quot;&gt;H1: &lt;/i&gt;Wallet, Store, Shopping_Cart&lt;/li&gt;&lt;li&gt;&lt;i style=&quot;font-weight: bold&quot;&gt;HM: &lt;/i&gt;Lists, Orders, Searches, Viewed_Items, Reviews, Questions, Answers, Address&amp;nbsp;&lt;/li&gt;&lt;li&gt;&lt;b style=&quot;font-style: italic&quot;&gt;HM &lt;/b&gt;&lt;i&gt;Items&amp;nbsp;&lt;/i&gt;&lt;b style=&quot;font-style: italic&quot;&gt;T: &lt;/b&gt;Orders=&amp;gt;Ordered_Items, Reviews=&amp;gt; Reviewed_items,&lt;b style=&quot;font-style: italic&quot;&gt;&amp;nbsp;&lt;/b&gt;&lt;/li&gt;&lt;/ul&gt;" style="rounded=0;whiteSpace=wrap;html=1;fontSize=9;align=left;verticalAlign=middle;labelPosition=center;verticalLabelPosition=middle;textDirection=ltr;horizontal=1;spacingLeft=-27;spacingRight=0;spacing=0;spacingTop=-2;" vertex="1" parent="1">
          <mxGeometry x="431.79" y="-580" width="168.21" height="160" as="geometry" />
        </mxCell>
        <mxCell id="44BDwmXZHBo2efQboQns-20" value="&lt;b&gt;USER&lt;/b&gt;" style="rounded=0;whiteSpace=wrap;html=1;" vertex="1" parent="1">
          <mxGeometry x="360" y="-600" width="240" height="20" as="geometry" />
        </mxCell>
        <mxCell id="44BDwmXZHBo2efQboQns-21" value="" style="group" vertex="1" connectable="0" parent="1">
          <mxGeometry x="519.9961538461538" y="280" width="240.0038461538462" height="180" as="geometry" />
        </mxCell>
        <mxCell id="44BDwmXZHBo2efQboQns-22" value="&lt;ul style=&quot;font-size: 9px&quot;&gt;&lt;li&gt;title.s&amp;nbsp;&lt;/li&gt;&lt;li&gt;body. s&lt;/li&gt;&lt;li&gt;rating.f&lt;/li&gt;&lt;li&gt;helpful.i&lt;/li&gt;&lt;li&gt;verified_pur.b&lt;/li&gt;&lt;/ul&gt;" style="rounded=0;whiteSpace=wrap;html=1;fontSize=26;align=left;spacingLeft=-27;spacingTop=-6;" vertex="1" parent="44BDwmXZHBo2efQboQns-21">
          <mxGeometry y="20" width="71.7948717948718" height="160" as="geometry" />
        </mxCell>
        <mxCell id="44BDwmXZHBo2efQboQns-23" value="&lt;div&gt;&lt;br&gt;&lt;/div&gt;&lt;ul&gt;&lt;li&gt;&lt;b&gt;&lt;i&gt;B2&lt;/i&gt;&lt;/b&gt;: Item, User&lt;/li&gt;&lt;/ul&gt;" style="rounded=0;whiteSpace=wrap;html=1;fontSize=9;align=left;verticalAlign=middle;labelPosition=center;verticalLabelPosition=middle;textDirection=ltr;horizontal=1;spacingLeft=-27;spacingRight=0;spacing=0;spacingTop=-2;" vertex="1" parent="44BDwmXZHBo2efQboQns-21">
          <mxGeometry x="71.79384615384623" y="20" width="168.21" height="160" as="geometry" />
        </mxCell>
        <mxCell id="44BDwmXZHBo2efQboQns-24" value="&lt;b&gt;REVIEW&lt;/b&gt;" style="rounded=0;whiteSpace=wrap;html=1;" vertex="1" parent="44BDwmXZHBo2efQboQns-21">
          <mxGeometry x="0.003846153846211564" width="240" height="20" as="geometry" />
        </mxCell>
        <mxCell id="44BDwmXZHBo2efQboQns-25" value="" style="group" vertex="1" connectable="0" parent="1">
          <mxGeometry x="199.9961538461538" y="280" width="240.0038461538462" height="180" as="geometry" />
        </mxCell>
        <mxCell id="44BDwmXZHBo2efQboQns-26" value="&lt;ul style=&quot;font-size: 9px&quot;&gt;&lt;li&gt;name.s&amp;nbsp;&lt;/li&gt;&lt;li&gt;stock.int&lt;/li&gt;&lt;li&gt;model.s&lt;/li&gt;&lt;/ul&gt;" style="rounded=0;whiteSpace=wrap;html=1;fontSize=26;align=left;spacingLeft=-27;spacingTop=-6;" vertex="1" parent="44BDwmXZHBo2efQboQns-25">
          <mxGeometry y="20" width="71.79" height="160" as="geometry" />
        </mxCell>
        <mxCell id="44BDwmXZHBo2efQboQns-27" value="&lt;div&gt;&lt;br&gt;&lt;/div&gt;&lt;ul&gt;&lt;li&gt;&lt;b&gt;&lt;i&gt;B2&lt;/i&gt;&lt;/b&gt;: Item&lt;/li&gt;&lt;/ul&gt;" style="rounded=0;whiteSpace=wrap;html=1;fontSize=9;align=left;verticalAlign=middle;labelPosition=center;verticalLabelPosition=middle;textDirection=ltr;horizontal=1;spacingLeft=-27;spacingRight=0;spacing=0;spacingTop=-2;" vertex="1" parent="44BDwmXZHBo2efQboQns-25">
          <mxGeometry x="71.79384615384623" y="20" width="168.21" height="160" as="geometry" />
        </mxCell>
        <mxCell id="44BDwmXZHBo2efQboQns-28" value="&lt;b&gt;Styles&lt;/b&gt;" style="rounded=0;whiteSpace=wrap;html=1;" vertex="1" parent="44BDwmXZHBo2efQboQns-25">
          <mxGeometry x="0.003846153846211564" width="240" height="20" as="geometry" />
        </mxCell>
        <mxCell id="44BDwmXZHBo2efQboQns-29" style="edgeStyle=orthogonalEdgeStyle;rounded=0;orthogonalLoop=1;jettySize=auto;html=1;" edge="1" parent="1" target="44BDwmXZHBo2efQboQns-24">
          <mxGeometry relative="1" as="geometry">
            <mxPoint x="480" y="200" as="sourcePoint" />
            <mxPoint x="480" y="310" as="targetPoint" />
            <Array as="points">
              <mxPoint x="480" y="240" />
              <mxPoint x="630" y="240" />
            </Array>
          </mxGeometry>
        </mxCell>
        <mxCell id="44BDwmXZHBo2efQboQns-30" style="edgeStyle=orthogonalEdgeStyle;rounded=0;orthogonalLoop=1;jettySize=auto;html=1;entryX=0.5;entryY=0;entryDx=0;entryDy=0;" edge="1" parent="1" target="44BDwmXZHBo2efQboQns-28">
          <mxGeometry relative="1" as="geometry">
            <mxPoint x="480" y="200" as="sourcePoint" />
            <Array as="points">
              <mxPoint x="480" y="200" />
              <mxPoint x="480" y="240" />
              <mxPoint x="320" y="240" />
            </Array>
          </mxGeometry>
        </mxCell>
        <mxCell id="44BDwmXZHBo2efQboQns-31" value="" style="group" vertex="1" connectable="0" parent="1">
          <mxGeometry x="-480.0038461538462" y="-260" width="240.0038461538462" height="180" as="geometry" />
        </mxCell>
        <mxCell id="44BDwmXZHBo2efQboQns-32" value="&lt;ul style=&quot;font-size: 9px&quot;&gt;&lt;li&gt;name.s&lt;/li&gt;&lt;li&gt;desc.s&lt;/li&gt;&lt;li&gt;private.b&lt;/li&gt;&lt;/ul&gt;" style="rounded=0;whiteSpace=wrap;html=1;fontSize=26;align=left;spacingLeft=-27;spacingTop=-6;" vertex="1" parent="44BDwmXZHBo2efQboQns-31">
          <mxGeometry y="20" width="71.7948717948718" height="160" as="geometry" />
        </mxCell>
        <mxCell id="44BDwmXZHBo2efQboQns-33" value="&lt;div&gt;&lt;br&gt;&lt;/div&gt;&lt;ul&gt;&lt;li&gt;&lt;b&gt;&lt;i&gt;B2:&lt;/i&gt;&lt;/b&gt;&amp;nbsp;user&lt;/li&gt;&lt;li&gt;&lt;i style=&quot;font-weight: bold&quot;&gt;HM: &lt;/i&gt;items&amp;nbsp;&lt;/li&gt;&lt;/ul&gt;" style="rounded=0;whiteSpace=wrap;html=1;fontSize=9;align=left;verticalAlign=middle;labelPosition=center;verticalLabelPosition=middle;textDirection=ltr;horizontal=1;spacingLeft=-27;spacingRight=0;spacing=0;spacingTop=-2;" vertex="1" parent="44BDwmXZHBo2efQboQns-31">
          <mxGeometry x="71.79384615384623" y="20" width="168.21" height="160" as="geometry" />
        </mxCell>
        <mxCell id="44BDwmXZHBo2efQboQns-34" value="&lt;b&gt;VIEWED_ITEMS&lt;/b&gt;" style="rounded=0;whiteSpace=wrap;html=1;" vertex="1" parent="44BDwmXZHBo2efQboQns-31">
          <mxGeometry x="0.003846153846211564" width="240" height="20" as="geometry" />
        </mxCell>
        <mxCell id="44BDwmXZHBo2efQboQns-39" value="" style="group" vertex="1" connectable="0" parent="1">
          <mxGeometry x="680" y="-260" width="240" height="180" as="geometry" />
        </mxCell>
        <mxCell id="44BDwmXZHBo2efQboQns-40" value="&lt;ul style=&quot;font-size: 9px&quot;&gt;&lt;li&gt;sub_tot.f&lt;/li&gt;&lt;li&gt;grand_tot.f&lt;/li&gt;&lt;li&gt;tax.f&lt;/li&gt;&lt;li&gt;ship_cost.f&lt;/li&gt;&lt;li&gt;shipped_on.d&lt;/li&gt;&lt;/ul&gt;" style="rounded=0;whiteSpace=wrap;html=1;fontSize=26;align=left;spacingLeft=-27;spacingTop=-6;" vertex="1" parent="44BDwmXZHBo2efQboQns-39">
          <mxGeometry y="20" width="71.79372125446706" height="160" as="geometry" />
        </mxCell>
        <mxCell id="44BDwmXZHBo2efQboQns-41" value="&lt;div&gt;&lt;br&gt;&lt;/div&gt;&lt;ul&gt;&lt;li&gt;&lt;b&gt;&lt;i&gt;B2&lt;/i&gt;&lt;/b&gt;: user&lt;/li&gt;&lt;li&gt;&lt;i style=&quot;font-weight: bold&quot;&gt;H1: &lt;/i&gt;Address&amp;nbsp; =&amp;gt; ship_to_add, status, payment_method&lt;/li&gt;&lt;li&gt;&lt;b style=&quot;font-style: italic&quot;&gt;HM: &lt;/b&gt;Items&lt;/li&gt;&lt;/ul&gt;" style="rounded=0;whiteSpace=wrap;html=1;fontSize=9;align=left;verticalAlign=middle;labelPosition=center;verticalLabelPosition=middle;textDirection=ltr;horizontal=1;spacingLeft=-27;spacingRight=0;spacing=0;spacingTop=-2;" vertex="1" parent="44BDwmXZHBo2efQboQns-39">
          <mxGeometry x="71.79269562987778" y="20" width="168.20730437012224" height="160" as="geometry" />
        </mxCell>
        <mxCell id="44BDwmXZHBo2efQboQns-42" value="&lt;b&gt;ORDER&lt;/b&gt;" style="rounded=0;whiteSpace=wrap;html=1;" vertex="1" parent="44BDwmXZHBo2efQboQns-39">
          <mxGeometry x="0.0038460922101184523" width="239.99615390778987" height="20" as="geometry" />
        </mxCell>
        <mxCell id="44BDwmXZHBo2efQboQns-47" style="edgeStyle=orthogonalEdgeStyle;rounded=0;orthogonalLoop=1;jettySize=auto;html=1;" edge="1" parent="1">
          <mxGeometry relative="1" as="geometry">
            <mxPoint x="800" y="-79" as="sourcePoint" />
            <mxPoint x="490" y="20" as="targetPoint" />
            <Array as="points">
              <mxPoint x="800" y="-40" />
              <mxPoint x="490" y="-40" />
              <mxPoint x="490" y="20" />
            </Array>
          </mxGeometry>
        </mxCell>
        <mxCell id="44BDwmXZHBo2efQboQns-49" value="" style="group" vertex="1" connectable="0" parent="1">
          <mxGeometry x="1239.996153846154" y="-260" width="240.0038461538462" height="180" as="geometry" />
        </mxCell>
        <mxCell id="44BDwmXZHBo2efQboQns-50" value="&lt;ul style=&quot;font-size: 9px&quot;&gt;&lt;li&gt;name.s&lt;/li&gt;&lt;li&gt;desc.s&lt;/li&gt;&lt;li&gt;private.b&lt;/li&gt;&lt;/ul&gt;" style="rounded=0;whiteSpace=wrap;html=1;fontSize=26;align=left;spacingLeft=-27;spacingTop=-6;" vertex="1" parent="44BDwmXZHBo2efQboQns-49">
          <mxGeometry y="20" width="71.7948717948718" height="160" as="geometry" />
        </mxCell>
        <mxCell id="44BDwmXZHBo2efQboQns-51" value="&lt;div&gt;&lt;br&gt;&lt;/div&gt;&lt;ul&gt;&lt;li&gt;&lt;b&gt;&lt;i&gt;B2&lt;/i&gt;&lt;/b&gt;: user&lt;/li&gt;&lt;/ul&gt;" style="rounded=0;whiteSpace=wrap;html=1;fontSize=9;align=left;verticalAlign=middle;labelPosition=center;verticalLabelPosition=middle;textDirection=ltr;horizontal=1;spacingLeft=-27;spacingRight=0;spacing=0;spacingTop=-2;" vertex="1" parent="44BDwmXZHBo2efQboQns-49">
          <mxGeometry x="71.79384615384623" y="20" width="168.21" height="160" as="geometry" />
        </mxCell>
        <mxCell id="44BDwmXZHBo2efQboQns-52" value="&lt;b&gt;WALLET&lt;/b&gt;" style="rounded=0;whiteSpace=wrap;html=1;" vertex="1" parent="44BDwmXZHBo2efQboQns-49">
          <mxGeometry x="0.003846153846211564" width="240" height="20" as="geometry" />
        </mxCell>
        <mxCell id="44BDwmXZHBo2efQboQns-55" style="edgeStyle=orthogonalEdgeStyle;rounded=0;orthogonalLoop=1;jettySize=auto;html=1;" edge="1" parent="1" target="44BDwmXZHBo2efQboQns-16">
          <mxGeometry relative="1" as="geometry">
            <mxPoint x="460" y="-420" as="sourcePoint" />
            <mxPoint x="190" y="-260" as="targetPoint" />
            <Array as="points">
              <mxPoint x="456" y="-420" />
              <mxPoint x="460" y="-420" />
              <mxPoint x="460" y="-330" />
              <mxPoint x="-80" y="-330" />
            </Array>
          </mxGeometry>
        </mxCell>
        <mxCell id="44BDwmXZHBo2efQboQns-56" style="edgeStyle=orthogonalEdgeStyle;rounded=0;orthogonalLoop=1;jettySize=auto;html=1;" edge="1" parent="1" target="44BDwmXZHBo2efQboQns-34">
          <mxGeometry relative="1" as="geometry">
            <mxPoint x="450" y="-420" as="sourcePoint" />
            <mxPoint x="-99.99999999999977" y="-260" as="targetPoint" />
            <Array as="points">
              <mxPoint x="450" y="-420" />
              <mxPoint x="450" y="-340" />
              <mxPoint x="-360" y="-340" />
            </Array>
          </mxGeometry>
        </mxCell>
        <mxCell id="44BDwmXZHBo2efQboQns-58" value="" style="endArrow=classic;startArrow=classic;html=1;rounded=0;exitX=0;exitY=0.5;exitDx=0;exitDy=0;" edge="1" parent="1" source="VXrbcK9fwIAbOTuLjDqE-16">
          <mxGeometry width="50" height="50" relative="1" as="geometry">
            <mxPoint x="79.9961538461539" y="117.28" as="sourcePoint" />
            <mxPoint x="-360" y="-80" as="targetPoint" />
            <Array as="points">
              <mxPoint x="80" y="80" />
            </Array>
          </mxGeometry>
        </mxCell>
        <mxCell id="44BDwmXZHBo2efQboQns-61" value="" style="group" vertex="1" connectable="0" parent="1">
          <mxGeometry x="959.9961538461538" y="20" width="240.0038461538462" height="180" as="geometry" />
        </mxCell>
        <mxCell id="44BDwmXZHBo2efQboQns-62" value="&lt;ul style=&quot;font-size: 9px&quot;&gt;&lt;li&gt;type_of.s&lt;/li&gt;&lt;li&gt;number.s&lt;/li&gt;&lt;li&gt;exp_date.d&lt;/li&gt;&lt;li&gt;code.i&lt;/li&gt;&lt;/ul&gt;" style="rounded=0;whiteSpace=wrap;html=1;fontSize=26;align=left;spacingLeft=-27;spacingTop=-6;" vertex="1" parent="44BDwmXZHBo2efQboQns-61">
          <mxGeometry y="20" width="71.7948717948718" height="160" as="geometry" />
        </mxCell>
        <mxCell id="44BDwmXZHBo2efQboQns-63" value="&lt;div&gt;&lt;br&gt;&lt;/div&gt;&lt;ul&gt;&lt;li&gt;&lt;b&gt;&lt;i&gt;B2:&lt;/i&gt;&lt;/b&gt; Wallet&lt;/li&gt;&lt;li&gt;&lt;b&gt;&lt;i&gt;H1:&lt;/i&gt;&lt;/b&gt; Address&lt;/li&gt;&lt;/ul&gt;" style="rounded=0;whiteSpace=wrap;html=1;fontSize=9;align=left;verticalAlign=middle;labelPosition=center;verticalLabelPosition=middle;textDirection=ltr;horizontal=1;spacingLeft=-27;spacingRight=0;spacing=0;spacingTop=-2;" vertex="1" parent="44BDwmXZHBo2efQboQns-61">
          <mxGeometry x="71.79384615384623" y="20" width="168.21" height="160" as="geometry" />
        </mxCell>
        <mxCell id="44BDwmXZHBo2efQboQns-64" value="&lt;b&gt;PAYMENT METHOD&lt;/b&gt;" style="rounded=0;whiteSpace=wrap;html=1;" vertex="1" parent="44BDwmXZHBo2efQboQns-61">
          <mxGeometry x="0.003846153846211564" width="240" height="20" as="geometry" />
        </mxCell>
        <mxCell id="44BDwmXZHBo2efQboQns-65" value="" style="group" vertex="1" connectable="0" parent="1">
          <mxGeometry x="959.9961538461539" y="-260" width="240.0038461538462" height="180" as="geometry" />
        </mxCell>
        <mxCell id="44BDwmXZHBo2efQboQns-66" value="&lt;ul style=&quot;font-size: 9px&quot;&gt;&lt;li&gt;name.s&lt;/li&gt;&lt;li&gt;track_info.s&lt;/li&gt;&lt;/ul&gt;" style="rounded=0;whiteSpace=wrap;html=1;fontSize=26;align=left;spacingLeft=-27;spacingTop=-6;" vertex="1" parent="44BDwmXZHBo2efQboQns-65">
          <mxGeometry y="20" width="71.7948717948718" height="160" as="geometry" />
        </mxCell>
        <mxCell id="44BDwmXZHBo2efQboQns-67" value="&lt;div&gt;&lt;br&gt;&lt;/div&gt;&lt;ul&gt;&lt;li&gt;&lt;b&gt;&lt;i&gt;B2:&lt;/i&gt;&lt;/b&gt;&amp;nbsp; Order&lt;/li&gt;&lt;/ul&gt;" style="rounded=0;whiteSpace=wrap;html=1;fontSize=9;align=left;verticalAlign=middle;labelPosition=center;verticalLabelPosition=middle;textDirection=ltr;horizontal=1;spacingLeft=-27;spacingRight=0;spacing=0;spacingTop=-2;" vertex="1" parent="44BDwmXZHBo2efQboQns-65">
          <mxGeometry x="71.79384615384623" y="20" width="168.21" height="160" as="geometry" />
        </mxCell>
        <mxCell id="44BDwmXZHBo2efQboQns-68" value="&lt;b&gt;Status&lt;/b&gt;" style="rounded=0;whiteSpace=wrap;html=1;" vertex="1" parent="44BDwmXZHBo2efQboQns-65">
          <mxGeometry x="0.003846153846211564" width="240" height="20" as="geometry" />
        </mxCell>
        <mxCell id="44BDwmXZHBo2efQboQns-73" style="edgeStyle=orthogonalEdgeStyle;rounded=0;orthogonalLoop=1;jettySize=auto;html=1;" edge="1" parent="1" source="44BDwmXZHBo2efQboQns-41" target="44BDwmXZHBo2efQboQns-66">
          <mxGeometry relative="1" as="geometry" />
        </mxCell>
        <mxCell id="44BDwmXZHBo2efQboQns-74" value="" style="group" vertex="1" connectable="0" parent="1">
          <mxGeometry x="679.9961538461538" y="20" width="240.0038461538462" height="180" as="geometry" />
        </mxCell>
        <mxCell id="44BDwmXZHBo2efQboQns-75" value="&lt;ul style=&quot;font-size: 9px&quot;&gt;&lt;li&gt;street.s&lt;/li&gt;&lt;li&gt;number.s&lt;/li&gt;&lt;li&gt;city.s&lt;/li&gt;&lt;li&gt;state.s&lt;/li&gt;&lt;li&gt;zip.s&lt;/li&gt;&lt;li&gt;def.b&lt;/li&gt;&lt;/ul&gt;" style="rounded=0;whiteSpace=wrap;html=1;fontSize=26;align=left;spacingLeft=-27;spacingTop=-6;" vertex="1" parent="44BDwmXZHBo2efQboQns-74">
          <mxGeometry y="20" width="71.7948717948718" height="160" as="geometry" />
        </mxCell>
        <mxCell id="44BDwmXZHBo2efQboQns-76" value="&lt;div&gt;&lt;br&gt;&lt;/div&gt;&lt;ul&gt;&lt;li&gt;&lt;b&gt;&lt;i&gt;B2:&lt;/i&gt;&lt;/b&gt; Wallet&lt;/li&gt;&lt;/ul&gt;" style="rounded=0;whiteSpace=wrap;html=1;fontSize=9;align=left;verticalAlign=middle;labelPosition=center;verticalLabelPosition=middle;textDirection=ltr;horizontal=1;spacingLeft=-27;spacingRight=0;spacing=0;spacingTop=-2;" vertex="1" parent="44BDwmXZHBo2efQboQns-74">
          <mxGeometry x="71.79384615384623" y="20" width="168.21" height="160" as="geometry" />
        </mxCell>
        <mxCell id="44BDwmXZHBo2efQboQns-77" value="&lt;b&gt;ADDRESS&lt;/b&gt;" style="rounded=0;whiteSpace=wrap;html=1;" vertex="1" parent="44BDwmXZHBo2efQboQns-74">
          <mxGeometry x="0.003846153846211564" width="240" height="20" as="geometry" />
        </mxCell>
        <mxCell id="44BDwmXZHBo2efQboQns-78" style="edgeStyle=orthogonalEdgeStyle;rounded=0;orthogonalLoop=1;jettySize=auto;html=1;exitX=0;exitY=0.5;exitDx=0;exitDy=0;entryX=1;entryY=0.5;entryDx=0;entryDy=0;" edge="1" parent="1" source="44BDwmXZHBo2efQboQns-62" target="44BDwmXZHBo2efQboQns-76">
          <mxGeometry relative="1" as="geometry" />
        </mxCell>
        <mxCell id="44BDwmXZHBo2efQboQns-81" value="" style="group" vertex="1" connectable="0" parent="1">
          <mxGeometry x="1239.996153846154" y="20" width="240.0038461538462" height="180" as="geometry" />
        </mxCell>
        <mxCell id="44BDwmXZHBo2efQboQns-82" value="&lt;ul style=&quot;font-size: 9px&quot;&gt;&lt;li&gt;deem_code.s&lt;/li&gt;&lt;li&gt;notes.s&lt;/li&gt;&lt;li&gt;amount&lt;/li&gt;&lt;/ul&gt;" style="rounded=0;whiteSpace=wrap;html=1;fontSize=26;align=left;spacingLeft=-27;spacingTop=-6;" vertex="1" parent="44BDwmXZHBo2efQboQns-81">
          <mxGeometry y="20" width="71.7948717948718" height="160" as="geometry" />
        </mxCell>
        <mxCell id="44BDwmXZHBo2efQboQns-83" value="&lt;div&gt;&lt;br&gt;&lt;/div&gt;&lt;ul&gt;&lt;li&gt;&lt;b&gt;&lt;i&gt;B2:&lt;/i&gt;&lt;/b&gt; Wallet&lt;/li&gt;&lt;/ul&gt;" style="rounded=0;whiteSpace=wrap;html=1;fontSize=9;align=left;verticalAlign=middle;labelPosition=center;verticalLabelPosition=middle;textDirection=ltr;horizontal=1;spacingLeft=-27;spacingRight=0;spacing=0;spacingTop=-2;" vertex="1" parent="44BDwmXZHBo2efQboQns-81">
          <mxGeometry x="71.79384615384623" y="20" width="168.21" height="160" as="geometry" />
        </mxCell>
        <mxCell id="44BDwmXZHBo2efQboQns-84" value="&lt;b&gt;GIFT_CARD&lt;/b&gt;" style="rounded=0;whiteSpace=wrap;html=1;" vertex="1" parent="44BDwmXZHBo2efQboQns-81">
          <mxGeometry x="0.003846153846211564" width="240" height="20" as="geometry" />
        </mxCell>
        <mxCell id="44BDwmXZHBo2efQboQns-86" value="" style="group" vertex="1" connectable="0" parent="1">
          <mxGeometry x="360" y="-260" width="240" height="180" as="geometry" />
        </mxCell>
        <mxCell id="44BDwmXZHBo2efQboQns-87" value="&lt;ul style=&quot;font-size: 9px&quot;&gt;&lt;li&gt;sub_tot.f&lt;/li&gt;&lt;li&gt;grand_tot.f&lt;/li&gt;&lt;li&gt;tax.f&lt;/li&gt;&lt;li&gt;ship_cost.f&lt;/li&gt;&lt;li&gt;shipped_on.d&lt;/li&gt;&lt;/ul&gt;" style="rounded=0;whiteSpace=wrap;html=1;fontSize=26;align=left;spacingLeft=-27;spacingTop=-6;" vertex="1" parent="44BDwmXZHBo2efQboQns-86">
          <mxGeometry y="20" width="71.79372125446706" height="160" as="geometry" />
        </mxCell>
        <mxCell id="44BDwmXZHBo2efQboQns-88" value="&lt;div&gt;&lt;br&gt;&lt;/div&gt;&lt;ul&gt;&lt;li&gt;&lt;b&gt;&lt;i&gt;B2&lt;/i&gt;&lt;/b&gt;: user(op)&lt;/li&gt;&lt;li&gt;&lt;b style=&quot;font-style: italic&quot;&gt;HM: &lt;/b&gt;Items&lt;/li&gt;&lt;/ul&gt;" style="rounded=0;whiteSpace=wrap;html=1;fontSize=9;align=left;verticalAlign=middle;labelPosition=center;verticalLabelPosition=middle;textDirection=ltr;horizontal=1;spacingLeft=-27;spacingRight=0;spacing=0;spacingTop=-2;" vertex="1" parent="44BDwmXZHBo2efQboQns-86">
          <mxGeometry x="71.79269562987778" y="20" width="168.20730437012224" height="160" as="geometry" />
        </mxCell>
        <mxCell id="44BDwmXZHBo2efQboQns-89" value="&lt;b&gt;SHOPPING_CART&lt;/b&gt;" style="rounded=0;whiteSpace=wrap;html=1;" vertex="1" parent="44BDwmXZHBo2efQboQns-86">
          <mxGeometry x="0.0038460922101184523" width="239.99615390778987" height="20" as="geometry" />
        </mxCell>
        <mxCell id="44BDwmXZHBo2efQboQns-91" style="edgeStyle=orthogonalEdgeStyle;rounded=0;orthogonalLoop=1;jettySize=auto;html=1;" edge="1" parent="1" source="44BDwmXZHBo2efQboQns-88">
          <mxGeometry relative="1" as="geometry">
            <mxPoint x="480" y="19.999999999999773" as="targetPoint" />
            <Array as="points">
              <mxPoint x="480" y="-60" />
              <mxPoint x="480" y="-60" />
            </Array>
          </mxGeometry>
        </mxCell>
        <mxCell id="44BDwmXZHBo2efQboQns-92" style="edgeStyle=orthogonalEdgeStyle;rounded=0;orthogonalLoop=1;jettySize=auto;html=1;entryX=0.5;entryY=0;entryDx=0;entryDy=0;" edge="1" parent="1" target="44BDwmXZHBo2efQboQns-77">
          <mxGeometry relative="1" as="geometry">
            <mxPoint x="800" y="-80" as="sourcePoint" />
            <Array as="points">
              <mxPoint x="800" y="-80" />
            </Array>
          </mxGeometry>
        </mxCell>
        <mxCell id="44BDwmXZHBo2efQboQns-95" style="edgeStyle=orthogonalEdgeStyle;rounded=0;orthogonalLoop=1;jettySize=auto;html=1;entryX=0.5;entryY=0;entryDx=0;entryDy=0;" edge="1" parent="1" target="44BDwmXZHBo2efQboQns-64">
          <mxGeometry relative="1" as="geometry">
            <mxPoint x="1360" y="-80" as="sourcePoint" />
            <Array as="points">
              <mxPoint x="1360" y="-80" />
              <mxPoint x="1360" y="-30" />
              <mxPoint x="1080" y="-30" />
            </Array>
          </mxGeometry>
        </mxCell>
        <mxCell id="44BDwmXZHBo2efQboQns-96" style="edgeStyle=orthogonalEdgeStyle;rounded=0;orthogonalLoop=1;jettySize=auto;html=1;entryX=0.5;entryY=0;entryDx=0;entryDy=0;" edge="1" parent="1" target="44BDwmXZHBo2efQboQns-84">
          <mxGeometry relative="1" as="geometry">
            <mxPoint x="1360" y="-80" as="sourcePoint" />
            <Array as="points">
              <mxPoint x="1360" y="-80" />
            </Array>
          </mxGeometry>
        </mxCell>
        <mxCell id="44BDwmXZHBo2efQboQns-97" value="" style="group" vertex="1" connectable="0" parent="1">
          <mxGeometry x="799.9961538461538" y="280" width="240.0038461538462" height="180" as="geometry" />
        </mxCell>
        <mxCell id="44BDwmXZHBo2efQboQns-98" value="&lt;ul style=&quot;font-size: 9px&quot;&gt;&lt;li&gt;title.s&lt;/li&gt;&lt;li&gt;body.s&lt;/li&gt;&lt;li&gt;helpful.s&lt;/li&gt;&lt;/ul&gt;" style="rounded=0;whiteSpace=wrap;html=1;fontSize=26;align=left;spacingLeft=-27;spacingTop=-6;" vertex="1" parent="44BDwmXZHBo2efQboQns-97">
          <mxGeometry y="20" width="71.79" height="160" as="geometry" />
        </mxCell>
        <mxCell id="44BDwmXZHBo2efQboQns-99" value="&lt;div&gt;&lt;br&gt;&lt;/div&gt;&lt;ul&gt;&lt;li&gt;&lt;b&gt;&lt;i&gt;B2&lt;/i&gt;&lt;/b&gt;: Item, user&lt;/li&gt;&lt;/ul&gt;" style="rounded=0;whiteSpace=wrap;html=1;fontSize=9;align=left;verticalAlign=middle;labelPosition=center;verticalLabelPosition=middle;textDirection=ltr;horizontal=1;spacingLeft=-27;spacingRight=0;spacing=0;spacingTop=-2;" vertex="1" parent="44BDwmXZHBo2efQboQns-97">
          <mxGeometry x="71.79384615384623" y="20" width="168.21" height="160" as="geometry" />
        </mxCell>
        <mxCell id="44BDwmXZHBo2efQboQns-100" value="&lt;b&gt;QUESTION&lt;/b&gt;" style="rounded=0;whiteSpace=wrap;html=1;" vertex="1" parent="44BDwmXZHBo2efQboQns-97">
          <mxGeometry x="0.003846153846211564" width="240" height="20" as="geometry" />
        </mxCell>
        <mxCell id="44BDwmXZHBo2efQboQns-101" value="" style="group" vertex="1" connectable="0" parent="1">
          <mxGeometry x="1079.996153846154" y="280" width="240.0038461538462" height="180" as="geometry" />
        </mxCell>
        <mxCell id="44BDwmXZHBo2efQboQns-102" value="&lt;ul style=&quot;font-size: 9px&quot;&gt;&lt;li&gt;body.s&lt;/li&gt;&lt;li&gt;helpful.i&lt;/li&gt;&lt;/ul&gt;" style="rounded=0;whiteSpace=wrap;html=1;fontSize=26;align=left;spacingLeft=-27;spacingTop=-6;" vertex="1" parent="44BDwmXZHBo2efQboQns-101">
          <mxGeometry y="20" width="71.79" height="160" as="geometry" />
        </mxCell>
        <mxCell id="44BDwmXZHBo2efQboQns-103" value="&lt;div&gt;&lt;br&gt;&lt;/div&gt;&lt;ul&gt;&lt;li&gt;&lt;b&gt;&lt;i&gt;B2&lt;/i&gt;&lt;/b&gt;: Item, user, answer&lt;/li&gt;&lt;/ul&gt;" style="rounded=0;whiteSpace=wrap;html=1;fontSize=9;align=left;verticalAlign=middle;labelPosition=center;verticalLabelPosition=middle;textDirection=ltr;horizontal=1;spacingLeft=-27;spacingRight=0;spacing=0;spacingTop=-2;" vertex="1" parent="44BDwmXZHBo2efQboQns-101">
          <mxGeometry x="71.79384615384623" y="20" width="168.21" height="160" as="geometry" />
        </mxCell>
        <mxCell id="44BDwmXZHBo2efQboQns-104" value="&lt;b&gt;ANSWER&lt;/b&gt;" style="rounded=0;whiteSpace=wrap;html=1;" vertex="1" parent="44BDwmXZHBo2efQboQns-101">
          <mxGeometry x="0.003846153846211564" width="240" height="20" as="geometry" />
        </mxCell>
        <mxCell id="44BDwmXZHBo2efQboQns-108" style="edgeStyle=orthogonalEdgeStyle;rounded=0;orthogonalLoop=1;jettySize=auto;html=1;" edge="1" parent="1">
          <mxGeometry relative="1" as="geometry">
            <mxPoint x="1080" y="380" as="targetPoint" />
            <mxPoint x="1040" y="380" as="sourcePoint" />
            <Array as="points">
              <mxPoint x="1040" y="380" />
              <mxPoint x="1080" y="380" />
            </Array>
          </mxGeometry>
        </mxCell>
        <mxCell id="44BDwmXZHBo2efQboQns-109" value="" style="group" vertex="1" connectable="0" parent="1">
          <mxGeometry x="-760" y="-600" width="240" height="180" as="geometry" />
        </mxCell>
        <mxCell id="44BDwmXZHBo2efQboQns-110" value="&lt;ul style=&quot;font-size: 9px&quot;&gt;&lt;li&gt;sub_tot.f&lt;/li&gt;&lt;li&gt;grand_tot.f&lt;/li&gt;&lt;li&gt;tax.f&lt;/li&gt;&lt;li&gt;ship_cost.f&lt;/li&gt;&lt;li&gt;shipped_on.d&lt;/li&gt;&lt;/ul&gt;" style="rounded=0;whiteSpace=wrap;html=1;fontSize=26;align=left;spacingLeft=-27;spacingTop=-6;" vertex="1" parent="44BDwmXZHBo2efQboQns-109">
          <mxGeometry y="20" width="71.79372125446706" height="160" as="geometry" />
        </mxCell>
        <mxCell id="44BDwmXZHBo2efQboQns-111" value="&lt;div&gt;&lt;br&gt;&lt;/div&gt;&lt;ul&gt;&lt;li&gt;&lt;b&gt;&lt;i&gt;B2&lt;/i&gt;&lt;/b&gt;: user&lt;/li&gt;&lt;li&gt;&lt;b style=&quot;font-style: italic&quot;&gt;H1: &lt;/b&gt;Inventory&lt;/li&gt;&lt;li&gt;&lt;b style=&quot;font-style: italic&quot;&gt;HM &lt;/b&gt;&lt;i&gt;Items&lt;/i&gt;&lt;b style=&quot;font-style: italic&quot;&gt; T:&amp;nbsp; &lt;/b&gt;inventory=&amp;gt;items&lt;b style=&quot;font-style: italic&quot;&gt;&amp;nbsp;&lt;/b&gt;&lt;/li&gt;&lt;li&gt;&lt;b style=&quot;font-style: italic&quot;&gt;HM&amp;nbsp; &lt;/b&gt;&lt;i&gt;Orders &lt;/i&gt;&lt;i&gt;&lt;b&gt;T: &lt;/b&gt;inventory =&amp;gt;orders&lt;/i&gt;&lt;/li&gt;&lt;/ul&gt;" style="rounded=0;whiteSpace=wrap;html=1;fontSize=9;align=left;verticalAlign=middle;labelPosition=center;verticalLabelPosition=middle;textDirection=ltr;horizontal=1;spacingLeft=-27;spacingRight=0;spacing=0;spacingTop=-2;" vertex="1" parent="44BDwmXZHBo2efQboQns-109">
          <mxGeometry x="71.79269562987778" y="20" width="168.20730437012224" height="160" as="geometry" />
        </mxCell>
        <mxCell id="44BDwmXZHBo2efQboQns-112" value="&lt;b&gt;STORE&lt;/b&gt;" style="rounded=0;whiteSpace=wrap;html=1;" vertex="1" parent="44BDwmXZHBo2efQboQns-109">
          <mxGeometry x="0.0038460922101184523" width="239.99615390778987" height="20" as="geometry" />
        </mxCell>
        <mxCell id="44BDwmXZHBo2efQboQns-114" value="" style="group" vertex="1" connectable="0" parent="1">
          <mxGeometry x="-760.0038461538462" y="-260" width="240.0038461538462" height="180" as="geometry" />
        </mxCell>
        <mxCell id="44BDwmXZHBo2efQboQns-115" value="&lt;div&gt;&lt;font size=&quot;1&quot;&gt;&lt;br&gt;&lt;/font&gt;&lt;/div&gt;&lt;ul style=&quot;font-size: 9px&quot;&gt;&lt;li&gt;desc.s&lt;/li&gt;&lt;li&gt;&lt;br&gt;&lt;/li&gt;&lt;/ul&gt;" style="rounded=0;whiteSpace=wrap;html=1;fontSize=26;align=left;spacingLeft=-27;spacingTop=-6;" vertex="1" parent="44BDwmXZHBo2efQboQns-114">
          <mxGeometry y="20" width="71.7948717948718" height="160" as="geometry" />
        </mxCell>
        <mxCell id="44BDwmXZHBo2efQboQns-116" value="&lt;div&gt;&lt;br&gt;&lt;/div&gt;&lt;ul&gt;&lt;li&gt;&lt;b&gt;&lt;i&gt;B2&lt;/i&gt;&lt;/b&gt;: store&lt;/li&gt;&lt;li&gt;&lt;b&gt;&lt;i&gt;HM:&lt;/i&gt;&lt;/b&gt; items&lt;/li&gt;&lt;li&gt;&lt;b&gt;HM &lt;/b&gt;&lt;i&gt;Orders &lt;/i&gt;&lt;b style=&quot;font-style: italic&quot;&gt;T: &lt;/b&gt;items =&amp;gt;items&lt;/li&gt;&lt;/ul&gt;" style="rounded=0;whiteSpace=wrap;html=1;fontSize=9;align=left;verticalAlign=middle;labelPosition=center;verticalLabelPosition=middle;textDirection=ltr;horizontal=1;spacingLeft=-27;spacingRight=0;spacing=0;spacingTop=-2;" vertex="1" parent="44BDwmXZHBo2efQboQns-114">
          <mxGeometry x="71.79384615384623" y="20" width="168.21" height="160" as="geometry" />
        </mxCell>
        <mxCell id="44BDwmXZHBo2efQboQns-117" value="&lt;b&gt;INVENTORY&lt;/b&gt;" style="rounded=0;whiteSpace=wrap;html=1;" vertex="1" parent="44BDwmXZHBo2efQboQns-114">
          <mxGeometry x="0.003846153846211564" width="240" height="20" as="geometry" />
        </mxCell>
        <mxCell id="44BDwmXZHBo2efQboQns-118" value="" style="endArrow=none;startArrow=classic;html=1;rounded=0;exitX=0;exitY=0.5;exitDx=0;exitDy=0;endFill=0;" edge="1" parent="1" source="VXrbcK9fwIAbOTuLjDqE-16">
          <mxGeometry width="50" height="50" relative="1" as="geometry">
            <mxPoint x="369.9961538461539" y="130" as="sourcePoint" />
            <mxPoint x="-640" y="-80" as="targetPoint" />
            <Array as="points">
              <mxPoint y="80" />
            </Array>
          </mxGeometry>
        </mxCell>
        <mxCell id="44BDwmXZHBo2efQboQns-119" style="edgeStyle=orthogonalEdgeStyle;rounded=0;orthogonalLoop=1;jettySize=auto;html=1;entryX=0.5;entryY=0;entryDx=0;entryDy=0;endArrow=none;endFill=0;" edge="1" parent="1" target="44BDwmXZHBo2efQboQns-117">
          <mxGeometry relative="1" as="geometry">
            <mxPoint x="-640" y="-420" as="sourcePoint" />
            <Array as="points">
              <mxPoint x="-640" y="-420" />
            </Array>
          </mxGeometry>
        </mxCell>
        <mxCell id="44BDwmXZHBo2efQboQns-120" value="" style="group" vertex="1" connectable="0" parent="1">
          <mxGeometry x="-1040.003846153846" y="-260" width="240.0038461538462" height="180" as="geometry" />
        </mxCell>
        <mxCell id="44BDwmXZHBo2efQboQns-121" value="&lt;ul style=&quot;font-size: 9px&quot;&gt;&lt;li&gt;?????&amp;nbsp;&lt;/li&gt;&lt;/ul&gt;" style="rounded=0;whiteSpace=wrap;html=1;fontSize=26;align=left;spacingLeft=-27;spacingTop=-6;" vertex="1" parent="44BDwmXZHBo2efQboQns-120">
          <mxGeometry y="20" width="71.7948717948718" height="160" as="geometry" />
        </mxCell>
        <mxCell id="44BDwmXZHBo2efQboQns-122" value="&lt;div&gt;&lt;br&gt;&lt;/div&gt;&lt;ul&gt;&lt;li&gt;&lt;b&gt;&lt;i&gt;PROBABLY WORTH FIGURING OUT&amp;nbsp;&lt;/i&gt;&lt;/b&gt;&lt;/li&gt;&lt;/ul&gt;" style="rounded=0;whiteSpace=wrap;html=1;fontSize=9;align=left;verticalAlign=middle;labelPosition=center;verticalLabelPosition=middle;textDirection=ltr;horizontal=1;spacingLeft=-27;spacingRight=0;spacing=0;spacingTop=-2;" vertex="1" parent="44BDwmXZHBo2efQboQns-120">
          <mxGeometry x="71.79384615384623" y="20" width="168.21" height="160" as="geometry" />
        </mxCell>
        <mxCell id="44BDwmXZHBo2efQboQns-123" value="&lt;b&gt;RETURN&lt;/b&gt;" style="rounded=0;whiteSpace=wrap;html=1;" vertex="1" parent="44BDwmXZHBo2efQboQns-120">
          <mxGeometry x="0.003846153846211564" width="240" height="20" as="geometry" />
        </mxCell>
        <mxCell id="44BDwmXZHBo2efQboQns-124" style="edgeStyle=orthogonalEdgeStyle;rounded=0;orthogonalLoop=1;jettySize=auto;html=1;entryX=0.5;entryY=0;entryDx=0;entryDy=0;endArrow=classic;endFill=1;startArrow=none;startFill=0;" edge="1" parent="1" target="44BDwmXZHBo2efQboQns-123">
          <mxGeometry relative="1" as="geometry">
            <mxPoint x="-650" y="-420" as="sourcePoint" />
            <Array as="points">
              <mxPoint x="-650" y="-420" />
              <mxPoint x="-650" y="-340" />
              <mxPoint x="-920" y="-340" />
            </Array>
          </mxGeometry>
        </mxCell>
      </root>
    </mxGraphModel>
  </diagram>
</mxfile>
